<svg width="24" height="24" viewBox="0 0 24 24" fill="none" xmlns="http://www.w3.org/2000/svg">
<path d="M12 3C10.1969 3 8.65549 3.61971 7.37584 4.85915C6.12527 6.07043 5.5 7.54929 5.5 9.29577C5.5 10.169 5.73266 11.1831 6.19799 12.338C6.66331 13.493 7.17953 14.5282 7.74664 15.4437C8.31376 16.3592 8.97539 17.3028 9.73154 18.2746C10.4877 19.2465 11.0112 19.8944 11.302 20.2183C11.5928 20.5423 11.8255 20.8028 12 21L12.698 20.2817C13.1342 19.7746 13.665 19.0916 14.2903 18.2324C14.9156 17.3732 15.5481 16.4507 16.1879 15.4648C16.8277 14.4789 17.373 13.4225 17.8238 12.2958C18.0048 11.8434 18.1494 11.4115 18.2578 11M19 4V1M19 4H16M19 4V7M19 4H22M13 9.5C13 10.0523 12.5523 10.5 12 10.5C11.4477 10.5 11 10.0523 11 9.5C11 8.94772 11.4477 8.5 12 8.5C12.5523 8.5 13 8.94772 13 9.5Z" stroke="black" stroke-width="2" stroke-linecap="round" stroke-linejoin="round"/>
</svg>
