<svg width="24" height="24" viewBox="0 0 24 24" fill="none" xmlns="http://www.w3.org/2000/svg">
<path d="M15.182 8.3181C16.3536 9.48967 18.2531 9.48967 19.4247 8.3181C20.5963 7.14653 20.5963 5.24703 19.4247 4.07546C18.2531 2.90388 16.3536 2.90388 15.182 4.07546C14.0105 5.24703 14.0105 7.14652 15.182 8.3181ZM15.182 8.3181C18.0105 11.1465 16.5962 13.9749 16.5962 13.9749M15.182 8.3181C12.3536 5.48967 9.52518 6.90386 9.52518 6.90386M9.52518 6.90386L4.57543 11.8536C3.96277 12.4663 3.54234 13.1984 3.31414 13.9749M9.52518 6.90386L10.2323 13.9749M16.5962 13.9749L11.6465 18.9247C9.69387 20.8773 6.52805 20.8773 4.57543 18.9247C3.23546 17.5847 2.81503 15.6734 3.31414 13.9749M16.5962 13.9749H10.2323M10.2323 13.9749L3.31414 13.9749" stroke="black" stroke-width="2" stroke-linecap="round" stroke-linejoin="round"/>
</svg>
