<svg width="24" height="24" viewBox="0 0 24 24" fill="none" xmlns="http://www.w3.org/2000/svg">
<path d="M13 16L10.6491 8.47724C10.5604 8.19332 10.2975 8 10 8V8C9.70254 8 9.43959 8.19332 9.35086 8.47724L7 16M7.625 14H12.375M16 9V16M12 4H6C4.89543 4 4 4.89543 4 6V18C4 19.1046 4.89543 20 6 20H18C19.1046 20 20 19.1046 20 18V12M16 5C17.6569 5 19 3.65685 19 2C19 3.65685 20.3431 5 22 5C20.3431 5 19 6.34315 19 8C19 6.34315 17.6569 5 16 5Z" stroke="black" stroke-width="2" stroke-linecap="round" stroke-linejoin="round"/>
</svg>
