<svg width="24" height="24" viewBox="0 0 24 24" fill="none" xmlns="http://www.w3.org/2000/svg">
<path d="M4.5 7.99998L5.37234 6.80052C6.93802 4.64771 10.1304 4.59623 11.7647 6.69744L12.3868 7.49733C13.9744 9.53848 17.0523 9.55956 18.6677 7.54035L19.5 6.49998M4.5 13L5.37234 11.8005C6.93802 9.64771 10.1304 9.59623 11.7647 11.6974L12.3868 12.4973C13.9744 14.5385 17.0523 14.5596 18.6677 12.5403L19.5 11.5M4.5 18L5.37234 16.8005C6.93802 14.6477 10.1304 14.5962 11.7647 16.6974L12.3868 17.4973C13.9744 19.5385 17.0523 19.5596 18.6677 17.5403L19.5 16.5" stroke="black" stroke-width="2" stroke-linecap="round" stroke-linejoin="round"/>
</svg>
