<svg width="24" height="24" viewBox="0 0 24 24" fill="none" xmlns="http://www.w3.org/2000/svg">
<path d="M17 13.75H13M17 17.25H13M16 10V8.35407C16 7.53626 15.5021 6.80084 14.7428 6.49711L14.1286 6.25144C13.749 6.09958 13.5 5.73187 13.5 5.32297V4.5C13.5 3.67157 12.8284 3 12 3V3C11.1716 3 10.5 3.67157 10.5 4.5V5.32297C10.5 5.73187 10.251 6.09958 9.87139 6.25144L9.25722 6.49711C8.4979 6.80084 8 7.53626 8 8.35407V10M9 21H15C16.1046 21 17 20.1046 17 19V12C17 10.8954 16.1046 10 15 10H9C7.89543 10 7 10.8954 7 12V19C7 20.1046 7.89543 21 9 21Z" stroke="black" stroke-width="2" stroke-linecap="round" stroke-linejoin="round"/>
</svg>
