<svg width="24" height="24" viewBox="0 0 24 24" fill="none" xmlns="http://www.w3.org/2000/svg">
<path d="M14 5C14 6.10457 13.1046 7 12 7M14 5C14 3.89543 13.1046 3 12 3C10.8954 3 10 3.89543 10 5M14 5H18.5M12 7C10.8954 7 10 6.10457 10 5M12 7V20M10 5H5.5M4 5H5.5M20 5H18.5M12 20H21M12 20H3M5.5 5L3 13C3 14 3.5 15.5 5.5 15.5C7.5 15.5 8 14 8 13L5.5 5ZM18.5 5L16 13C16 14 16.5 15.5 18.5 15.5C20.5 15.5 21 14 21 13L18.5 5Z" stroke="black" stroke-width="2" stroke-linecap="round" stroke-linejoin="round"/>
</svg>
