<svg width="24" height="24" viewBox="0 0 24 24" fill="none" xmlns="http://www.w3.org/2000/svg">
<path d="M4 18L10 12M10 12V19.7929C10 20.2383 10.5386 20.4614 10.8536 20.1464L13.7929 17.2071C14.1834 16.8166 14.1834 16.1834 13.7929 15.7929L10 12ZM10 12L13.7929 8.20711C14.1834 7.81658 14.1834 7.18342 13.7929 6.79289L10.8536 3.85355C10.5386 3.53857 10 3.76165 10 4.20711V12ZM10 12L4 6M18.9297 8C19.6104 9.17669 20 10.5429 20 12C20 13.4571 19.6104 14.8233 18.9297 16M15.8169 11C16.0118 11.3157 16.1169 11.6516 16.1169 12C16.1169 12.3484 16.0118 12.6843 15.8169 13" stroke="black" stroke-width="2" stroke-linecap="round" stroke-linejoin="round"/>
</svg>
