<svg width="24" height="24" viewBox="0 0 24 24" fill="none" xmlns="http://www.w3.org/2000/svg">
<path d="M20.4853 11.2929C19.509 12.2692 17.926 12.2692 16.9497 11.2929L16.5962 10.9393L10.9393 16.5962L11.2929 16.9497C12.2692 17.926 12.2692 19.509 11.2929 20.4853C10.3166 21.4616 8.73366 21.4616 7.75734 20.4853C7.00317 19.7311 6.99221 18.4543 7.18924 17.7494C7.26357 17.4834 7.2455 17.145 7.05024 16.9497C6.85498 16.7545 6.51653 16.7364 6.25058 16.8107C5.54565 17.0078 4.26887 16.9968 3.5147 16.2426C2.53839 15.2663 2.53839 13.6834 3.5147 12.7071C4.49102 11.7308 6.07393 11.7308 7.05024 12.7071L7.40379 13.0606L13.0606 7.40379L12.7071 7.05024C11.7308 6.07393 11.7308 4.49101 12.7071 3.5147C13.6834 2.53839 15.2663 2.53839 16.2426 3.5147C16.9968 4.26887 17.0078 5.54565 16.8107 6.25058C16.7364 6.51653 16.7545 6.85498 16.9497 7.05024C17.145 7.2455 17.4834 7.26357 17.7494 7.18924C18.4543 6.99221 19.7311 7.00317 20.4853 7.75734C21.4616 8.73366 21.4616 10.3166 20.4853 11.2929Z" stroke="black" stroke-width="2" stroke-linecap="round" stroke-linejoin="round"/>
</svg>
