<svg width="24" height="24" viewBox="0 0 24 24" fill="none" xmlns="http://www.w3.org/2000/svg">
<path d="M2 17.3492C2 18.1352 2.16486 18.8827 2.46189 19.5589L5.01041 17.0104C5.79146 16.2294 7.05779 16.2294 7.83884 17.0104C8.61989 17.7915 8.61989 19.0578 7.83884 19.8388L5.29032 22.3874C5.96658 22.6844 6.71404 22.8492 7.5 22.8492C10.5376 22.8492 13 20.3868 13 17.3492C13 16.5633 12.8351 15.8158 12.5381 15.1396L21.435 6.24264C22.2161 5.46159 22.2161 4.19526 21.435 3.41422V3.41422C20.654 2.63317 19.3877 2.63317 18.6066 3.41422L9.70968 12.3111C9.03342 12.0141 8.28597 11.8492 7.5 11.8492C4.46243 11.8492 2 14.3117 2 17.3492Z" stroke="black" stroke-width="2" stroke-linecap="round" stroke-linejoin="round"/>
</svg>
