<svg width="24" height="24" viewBox="0 0 24 24" fill="none" xmlns="http://www.w3.org/2000/svg">
<path d="M3 5H19C20.1046 5 21 5.89543 21 7V17C21 18.1046 20.1046 19 19 19H16M8 19C8 16.2386 5.76142 14 3 14M12 19C12 14.0294 7.97056 10 3 10M3.51001 18.5H3.52001M4.01001 18.5C4.01001 18.7761 3.78615 19 3.51001 19C3.23387 19 3.01001 18.7761 3.01001 18.5C3.01001 18.2239 3.23387 18 3.51001 18C3.78615 18 4.01001 18.2239 4.01001 18.5Z" stroke="black" stroke-width="2" stroke-linecap="round" stroke-linejoin="round"/>
</svg>
