<svg width="24" height="24" viewBox="0 0 24 24" fill="none" xmlns="http://www.w3.org/2000/svg">
<path fill-rule="evenodd" clip-rule="evenodd" d="M11.2929 3.20711C11.6834 2.81658 12.3166 2.81658 12.7071 3.20711L14.7929 5.29289C15.1834 5.68342 15.1834 6.31658 14.7929 6.70711L12.7071 8.79289C12.3166 9.18342 11.6834 9.18342 11.2929 8.79289L9.20711 6.70711C8.81658 6.31658 8.81658 5.68342 9.20711 5.29289L11.2929 3.20711Z" stroke="black" stroke-width="2" stroke-linecap="round" stroke-linejoin="round"/>
<path fill-rule="evenodd" clip-rule="evenodd" d="M11.2929 15.2071C11.6834 14.8166 12.3166 14.8166 12.7071 15.2071L14.7929 17.2929C15.1834 17.6834 15.1834 18.3166 14.7929 18.7071L12.7071 20.7929C12.3166 21.1834 11.6834 21.1834 11.2929 20.7929L9.20711 18.7071C8.81658 18.3166 8.81658 17.6834 9.20711 17.2929L11.2929 15.2071Z" stroke="black" stroke-width="2" stroke-linecap="round" stroke-linejoin="round"/>
<path fill-rule="evenodd" clip-rule="evenodd" d="M5.29289 9.20711C5.68342 8.81658 6.31658 8.81658 6.70711 9.20711L8.79289 11.2929C9.18342 11.6834 9.18342 12.3166 8.79289 12.7071L6.70711 14.7929C6.31658 15.1834 5.68342 15.1834 5.29289 14.7929L3.20711 12.7071C2.81658 12.3166 2.81658 11.6834 3.20711 11.2929L5.29289 9.20711Z" stroke="black" stroke-width="2" stroke-linecap="round" stroke-linejoin="round"/>
<path fill-rule="evenodd" clip-rule="evenodd" d="M17.2929 9.20711C17.6834 8.81658 18.3166 8.81658 18.7071 9.20711L20.7929 11.2929C21.1834 11.6834 21.1834 12.3166 20.7929 12.7071L18.7071 14.7929C18.3166 15.1834 17.6834 15.1834 17.2929 14.7929L15.2071 12.7071C14.8166 12.3166 14.8166 11.6834 15.2071 11.2929L17.2929 9.20711Z" stroke="black" stroke-width="2" stroke-linecap="round" stroke-linejoin="round"/>
</svg>
