<svg width="24" height="24" viewBox="0 0 24 24" fill="none" xmlns="http://www.w3.org/2000/svg">
<path d="M15 15H15.01M8.51001 13.5H8.52001M10.51 8.5H10.52M12 3C12.1956 3 12.3897 3.00695 12.5822 3.01986C12.8264 3.03624 13 3.25526 13 3.5V3.5C13 5.98528 15.0147 8 17.5 8C17.6591 8 17.8161 7.99014 17.9709 7.97385C17.9864 7.97221 18 7.98441 18 8V8C18 9.81801 19.2128 11.3528 20.8736 11.8393C20.9455 11.8604 21 11.925 21 12V12C21 16.9706 16.9706 21 12 21C7.02944 21 3 16.9706 3 12C3 7.02944 7.02944 3 12 3ZM9.01001 13.5C9.01001 13.7761 8.78615 14 8.51001 14C8.23387 14 8.01001 13.7761 8.01001 13.5C8.01001 13.2239 8.23387 13 8.51001 13C8.78615 13 9.01001 13.2239 9.01001 13.5ZM11.01 8.5C11.01 8.77614 10.7862 9 10.51 9C10.2339 9 10.01 8.77614 10.01 8.5C10.01 8.22386 10.2339 8 10.51 8C10.7862 8 11.01 8.22386 11.01 8.5Z" stroke="black" stroke-width="2" stroke-linecap="round" stroke-linejoin="round"/>
</svg>
