<svg width="24" height="24" viewBox="0 0 24 24" fill="none" xmlns="http://www.w3.org/2000/svg">
<path d="M12 5L12 6L12 6L12 5ZM22.0026 12L22.9045 12.4318L23.1113 12L22.9045 11.5682L22.0026 12ZM12 19L12 18L12 18L12 19ZM1.99741 12L1.09546 11.5682L0.888693 12L1.09546 12.4318L1.99741 12ZM12 5L12 6C13.7027 5.99999 15.5876 6.7729 17.2813 8.01614C18.9692 9.25513 20.3592 10.8833 21.1006 12.4318L22.0026 12L22.9045 11.5682C21.9989 9.67674 20.3734 7.80489 18.4648 6.40386C16.5619 5.00709 14.269 3.99998 12 4L12 5ZM22.0026 12L21.1006 11.5682C20.3592 13.1167 18.9692 14.7449 17.2813 15.9839C15.5876 17.2271 13.7027 18 12 18L12 19L12 20C14.269 20 16.5619 18.9929 18.4648 17.5961C20.3734 16.1951 21.9989 14.3233 22.9045 12.4318L22.0026 12ZM12 19L12 18C10.2973 18 8.41243 17.2271 6.7187 15.9839C5.03076 14.7449 3.64079 13.1167 2.89935 11.5682L1.99741 12L1.09546 12.4318C2.00106 14.3233 3.62656 16.1951 5.53525 17.5961C7.43814 18.9929 9.73103 20 12 20L12 19ZM1.99741 12L2.89935 12.4318C3.64079 10.8833 5.03076 9.25513 6.7187 8.01614C8.41243 6.7729 10.2973 5.99999 12 6L12 5L12 4C9.73103 3.99998 7.43814 5.00709 5.53525 6.40386C3.62656 7.80489 2.00106 9.67674 1.09546 11.5682L1.99741 12ZM15 12H14C14 13.1046 13.1046 14 12 14V15V16C14.2091 16 16 14.2091 16 12H15ZM12 15V14C10.8954 14 10 13.1046 10 12H9H8C8 14.2091 9.79086 16 12 16V15ZM9 12H10C10 10.8954 10.8954 10 12 10V9V8C9.79086 8 8 9.79086 8 12H9ZM12 9V10C13.1046 10 14 10.8954 14 12H15H16C16 9.79086 14.2091 8 12 8V9Z" fill="black"/>
</svg>
