<svg width="24" height="24" viewBox="0 0 24 24" fill="none" xmlns="http://www.w3.org/2000/svg">
<path d="M10.2236 9.90071L9.17713 7.23697C8.15114 4.4155 11.0152 2.79579 13.3747 3.00195C15.7341 3.20811 15.6194 5.36141 14.0161 6.23184C12.4127 7.10226 12.3756 7.92412 12.3756 9.27546M9.90071 13.7763L7.23697 14.8228C4.4155 15.8487 2.79579 12.9846 3.00195 10.6252C3.20811 8.26582 5.36141 8.38045 6.23184 9.98383C7.10226 11.5872 7.92412 11.6243 9.27546 11.6243M13.7764 14.0993L14.8229 16.763C15.8489 19.5845 12.9848 21.2042 10.6254 20.9981C8.26594 20.7919 8.38057 18.6386 9.98395 17.7682C11.5873 16.8977 11.6244 16.0759 11.6244 14.7245M14.0993 10.2235L16.763 9.17701C19.5845 8.15101 21.2042 11.0151 20.9981 13.3745C20.7919 15.7339 18.6386 15.6193 17.7682 14.0159C16.8977 12.4126 16.0759 12.3755 14.7245 12.3755M14.7501 12C14.7501 13.5188 13.5188 14.75 12.0001 14.75C10.4813 14.75 9.25005 13.5188 9.25005 12C9.25005 10.4812 10.4813 9.25002 12.0001 9.25002C13.5188 9.25002 14.7501 10.4812 14.7501 12Z" stroke="black" stroke-width="2" stroke-linecap="round" stroke-linejoin="round"/>
</svg>
