<svg width="24" height="24" viewBox="0 0 24 24" fill="none" xmlns="http://www.w3.org/2000/svg">
<path d="M17.7271 8.74309C17.122 9.52828 16.346 9.99999 15.5 9.99999C13.567 9.99999 12 7.53756 12 4.49999C12 4.01152 12.0405 3.53793 12.1166 3.08706L12 2.97046L6.74261 8.22782C3.83905 11.1314 3.83905 15.839 6.74261 18.7425C9.64617 21.6461 14.3538 21.6461 17.2573 18.7425C19.9948 16.0051 20.1514 11.664 17.7271 8.74309Z" stroke="black" stroke-width="2" stroke-linecap="round" stroke-linejoin="round"/>
<path d="M10 16L12 14L14 16C15.1046 17.1046 15.1046 18.8954 14 20C12.8954 21.1046 11.1046 21.1046 10 20C8.89543 18.8954 8.89543 17.1046 10 16Z" stroke="black" stroke-width="2" stroke-linecap="round" stroke-linejoin="round"/>
</svg>
