<svg width="24" height="24" viewBox="0 0 24 24" fill="none" xmlns="http://www.w3.org/2000/svg">
<path d="M9 19H5C3.89543 19 3 18.1046 3 17V7C3 5.89543 3.89543 5 5 5L8.67157 5C9.20201 5 9.71071 5.21071 10.0858 5.58579L11.5 7H19C20.1046 7 21 7.89543 21 9V9M13 19V19C13 17.3431 14.3431 16 16 16H18C19.6569 16 21 17.3431 21 19V19M17 16V16C18.1046 16 19 15.1046 19 14V13C19 11.8954 18.1046 11 17 11V11C15.8954 11 15 11.8954 15 13V14C15 15.1046 15.8954 16 17 16Z" stroke="black" stroke-width="2" stroke-linecap="round" stroke-linejoin="round"/>
</svg>
