<svg width="24" height="24" viewBox="0 0 24 24" fill="none" xmlns="http://www.w3.org/2000/svg">
<path d="M9.08549 11.5C9.13913 11.897 9.32481 12.2583 9.57927 12.8983C10.1408 14.3107 10.4743 16.4202 8.33107 16.9036C6.1878 17.387 5.44205 15.9614 5.30225 14.6592C5.211 13.8092 5.17724 13.3814 4.81288 12.5M9.08549 11.5C9.02076 11.0209 9.1483 10.4898 9.57927 9.35386C10.3674 7.27666 9.86923 1.8057 6.31137 2.00532C2.15598 2.23846 2.62633 8.10573 3.89196 10.5757C4.33152 11.4335 4.619 12.031 4.81288 12.5M9.08549 11.5L4.81288 12.5M14.9145 16.5C14.8609 16.897 14.6752 17.2583 14.4207 17.8983C13.8592 19.3107 13.5257 21.4202 15.6689 21.9036C17.8122 22.387 18.558 20.9614 18.6978 19.6592C18.789 18.8092 18.8228 18.3814 19.1871 17.5M14.9145 16.5C14.9792 16.0209 14.8517 15.4898 14.4207 14.3539C13.6326 12.2767 14.1308 6.8057 17.6886 7.00532C21.844 7.23846 21.3737 13.1057 20.108 15.5757C19.6685 16.4335 19.381 17.031 19.1871 17.5M14.9145 16.5L19.1871 17.5" stroke="black" stroke-width="2"/>
</svg>
