<svg width="24" height="24" viewBox="0 0 24 24" fill="none" xmlns="http://www.w3.org/2000/svg">
<path d="M15 5.51208C18.4956 6.74759 21 10.0813 21 14C21 15.4685 20.6483 16.8548 20.0245 18.0794C19.7216 18.674 19.0839 19 18.4165 19H5.58351C4.91613 19 4.27839 18.674 3.97547 18.0794C3.3517 16.8548 3 15.4685 3 14C3 10.0813 5.50442 6.74759 9 5.51208M12 12.9999C11.4477 12.9999 11 13.4476 11 13.9999C11 14.5522 11.4477 14.9999 12 14.9999C12.5523 14.9999 13 14.5522 13 13.9999C13 13.4476 12.5523 12.9999 12 12.9999ZM12 12.9999V3.99988" stroke="black" stroke-width="2" stroke-linecap="round" stroke-linejoin="round"/>
</svg>
