<svg width="24" height="24" viewBox="0 0 24 24" fill="none" xmlns="http://www.w3.org/2000/svg">
<path d="M12 7V20M12 7H17M12 7H7M12 7V6M12 20H18C19.1046 20 20 19.1046 20 18V11M12 20H6C4.89543 20 4 19.1046 4 18V11M17 7H19C20.1046 7 21 7.89543 21 9V11H20M17 7L17.3158 5.73692C17.6633 4.3467 16.6119 3 15.1788 3V3C14.4424 3 13.7546 3.36807 13.3461 3.98086L12 6M7 7H5C3.89543 7 3 7.89543 3 9V11H4M7 7L6.68423 5.73692C6.33668 4.3467 7.38815 3 8.82116 3V3C9.55763 3 10.2454 3.36807 10.6539 3.98086L12 6M4 11H20" stroke="black" stroke-width="2" stroke-linecap="round" stroke-linejoin="round"/>
</svg>
