<svg width="24" height="24" viewBox="0 0 24 24" fill="none" xmlns="http://www.w3.org/2000/svg">
<path d="M2 11V13M22 11V13M12 7C10.5733 7 8.75231 7.26693 7.32528 7.52497C5.956 7.77257 5 8.9831 5 10.3746V14C5 15.6569 6.34315 17 8 17H8.51317C8.83561 17 9.15595 16.948 9.46185 16.846L11.0513 16.3162C11.6671 16.111 12.3329 16.111 12.9487 16.3162L14.5381 16.846C14.844 16.948 15.1644 17 15.4868 17H16C17.6569 17 19 15.6569 19 14V10.3746C19 8.9831 18.044 7.77257 16.6747 7.52497C15.2477 7.26693 13.4267 7 12 7Z" stroke="black" stroke-width="2" stroke-linecap="round" stroke-linejoin="round"/>
</svg>
