<svg width="24" height="24" viewBox="0 0 24 24" fill="none" xmlns="http://www.w3.org/2000/svg">
<path d="M9 16V17C9 18.6569 10.3431 20 12 20C13.6569 20 15 18.6569 15 17V16M9 16H5.48604C4.66532 16 4 15.3347 4 14.514C4 14.181 4.11182 13.8577 4.31754 13.5959L8.59915 8.14653C9.16791 7.42266 10.0375 7 10.9581 7H12M9 16H15M15 16H18.514C19.3347 16 20 15.3347 20 14.514C20 14.181 19.8882 13.8577 19.6825 13.5959L15.4008 8.14654C14.8321 7.42266 13.9625 7 13.0419 7H12M12 7V4" stroke="black" stroke-width="2" stroke-linecap="round" stroke-linejoin="round"/>
</svg>
