<svg width="24" height="24" viewBox="0 0 24 24" fill="none" xmlns="http://www.w3.org/2000/svg">
<path d="M12 14L11.2929 14.7071L12 15.4142L12.7071 14.7071L12 14ZM12 12L11.4 12.8C11.7556 13.0667 12.2444 13.0667 12.6 12.8L12 12ZM13.8544 10.6092L13.2544 9.80919L13.8544 10.6092ZM5 6H19V4H5V6ZM20 7V17H22V7H20ZM19 18H5V20H19V18ZM4 17V7H2V17H4ZM9.54558 11.4092L11.4 12.8L12.6 11.2L10.7456 9.80919L9.54558 11.4092ZM12.6 12.8L14.4544 11.4092L13.2544 9.80919L11.4 11.2L12.6 12.8ZM8.72487 12.1391L11.2929 14.7071L12.7071 13.2929L10.1391 10.7249L8.72487 12.1391ZM12.7071 14.7071L15.2751 12.1391L13.8609 10.7249L11.2929 13.2929L12.7071 14.7071ZM14.4544 11.4092C14.3758 11.4681 14.2802 11.5 14.182 11.5V9.5C13.8475 9.5 13.522 9.60849 13.2544 9.80919L14.4544 11.4092ZM9.81802 11.5C9.71977 11.5 9.62418 11.4681 9.54558 11.4092L10.7456 9.80919C10.478 9.60849 10.1525 9.5 9.81802 9.5V11.5ZM14.182 11.5C13.7775 11.5 13.5749 11.0109 13.8609 10.7249L15.2751 12.1391C16.249 11.1652 15.5593 9.5 14.182 9.5V11.5ZM9.81802 9.5C8.44073 9.5 7.75098 11.1652 8.72487 12.1391L10.1391 10.7249C10.4251 11.0109 10.2225 11.5 9.81802 11.5V9.5ZM5 18C4.44772 18 4 17.5523 4 17H2C2 18.6569 3.34315 20 5 20V18ZM20 17C20 17.5523 19.5523 18 19 18V20C20.6569 20 22 18.6569 22 17H20ZM19 6C19.5523 6 20 6.44772 20 7H22C22 5.34315 20.6569 4 19 4V6ZM5 4C3.34315 4 2 5.34315 2 7H4C4 6.44772 4.44772 6 5 6V4Z" fill="black"/>
</svg>
