<svg width="24" height="24" viewBox="0 0 24 24" fill="none" xmlns="http://www.w3.org/2000/svg">
<path d="M18 20.9999V18.9999M8 1.99988V4.99988M5 1.99988V2.00988M9.82325 10.8231L18 18.9999L20.5 21.4999M8 10.9999V20.9999M8 10.9999H9C9.29347 10.9999 9.57218 10.9367 9.82325 10.8231M8 10.9999V8.99988M8 10.9999H7C5.89543 10.9999 5 10.1044 5 8.99988V5.99988M5 5.99988L8 8.99988L9.82325 10.8231M5 5.99988L2 2.99988M11 7.99988V1.99988M15 10.1715V5.49988C15 3.84302 16.3431 2.49988 18 2.49988V13.9999L15.5858 11.5857C15.2107 11.2106 15 10.7019 15 10.1715Z" stroke="black" stroke-width="2" stroke-linecap="round" stroke-linejoin="round"/>
</svg>
