<svg width="24" height="24" viewBox="0 0 24 24" fill="none" xmlns="http://www.w3.org/2000/svg">
<path d="M17 13H3V17C3 18.1046 3.89543 19 5 19H15C16.1046 19 17 18.1046 17 17V13ZM17 13V12.4881C17 11.6048 17.5793 10.8262 18.4253 10.5724L22 9.5M6 9.5V8.32843C6 7.79799 5.78929 7.28929 5.41421 6.91421L4.58579 6.08579C4.21071 5.71071 4 5.20201 4 4.67157V4M10 9.5V8.32843C10 7.79799 9.78929 7.28929 9.41421 6.91421L8.58579 6.08579C8.21071 5.71071 8 5.20201 8 4.67157V4M14 9.5V8.32843C14 7.79799 13.7893 7.28929 13.4142 6.91421L12.5858 6.08579C12.2107 5.71071 12 5.20201 12 4.67157V4" stroke="black" stroke-width="2" stroke-linecap="round" stroke-linejoin="round"/>
</svg>
