<svg width="24" height="24" viewBox="0 0 24 24" fill="none" xmlns="http://www.w3.org/2000/svg">
<path d="M9.3027 12.3595C9.72213 11.241 10.7914 10.5 11.9859 10.5V10.5C13.1943 10.5 14.2729 11.258 14.6822 12.395L15.0883 13.5232C15.3581 14.2725 15.8189 14.9383 16.4252 15.4548L18.3965 17.1341C19.3265 17.9263 19.5611 19.2682 18.955 20.3288V20.3288C18.3902 21.3172 17.237 21.8093 16.1327 21.5332L13.4888 20.8722C12.5113 20.6278 11.4887 20.6278 10.5112 20.8722L7.88828 21.5279C6.77155 21.8071 5.60542 21.3095 5.03432 20.3101V20.3101C4.43151 19.2551 4.65005 17.9222 5.55815 17.115L7.65958 15.247C8.21153 14.7564 8.63552 14.1386 8.89482 13.4471L9.3027 12.3595Z" stroke="black" stroke-width="2" stroke-linecap="round" stroke-linejoin="round"/>
<path d="M10.5 5C10.5 6.10457 9.60457 7 8.5 7C7.39543 7 6.5 6.10457 6.5 5C6.5 3.89543 7.39543 3 8.5 3C9.60457 3 10.5 3.89543 10.5 5Z" stroke="black" stroke-width="2" stroke-linecap="round" stroke-linejoin="round"/>
<path d="M6 10C6 11.1046 5.10457 12 4 12C2.89543 12 2 11.1046 2 10C2 8.89543 2.89543 8 4 8C5.10457 8 6 8.89543 6 10Z" stroke="black" stroke-width="2" stroke-linecap="round" stroke-linejoin="round"/>
<path d="M17.5 5C17.5 6.10457 16.6046 7 15.5 7C14.3954 7 13.5 6.10457 13.5 5C13.5 3.89543 14.3954 3 15.5 3C16.6046 3 17.5 3.89543 17.5 5Z" stroke="black" stroke-width="2" stroke-linecap="round" stroke-linejoin="round"/>
<path d="M22 10C22 11.1046 21.1046 12 20 12C18.8954 12 18 11.1046 18 10C18 8.89543 18.8954 8 20 8C21.1046 8 22 8.89543 22 10Z" stroke="black" stroke-width="2" stroke-linecap="round" stroke-linejoin="round"/>
</svg>
