<svg width="24" height="24" viewBox="0 0 24 24" fill="none" xmlns="http://www.w3.org/2000/svg">
<path d="M8.49998 19H6.19437C5.57174 19 5.10049 18.4371 5.20994 17.8242L7.3528 5.82421C7.43797 5.34728 7.85276 5 8.33723 5H13.6803C16.0861 5 17.9234 7.09957 17.6555 9.44692M17.6555 9.44692C18.8131 10.1258 19.5019 11.4902 19.2155 12.9223L19.1029 13.4854C18.7523 15.2383 17.2133 16.5 15.4257 16.5H13.8022C13.3335 16.5 12.9276 16.8255 12.826 17.2831L12.174 20.2169C12.0723 20.6745 11.6665 21 11.1978 21H9.70491C9.07877 21 8.60665 20.4311 8.72204 19.8157L9.84704 13.8157C9.93572 13.3427 10.3487 13 10.8299 13H13.6803C15.6051 13 17.257 11.629 17.6118 9.73715C17.63 9.64008 17.6445 9.54329 17.6555 9.44692Z" stroke="black" stroke-width="2" stroke-linecap="round" stroke-linejoin="round"/>
</svg>
