<svg width="24" height="24" viewBox="0 0 24 24" fill="none" xmlns="http://www.w3.org/2000/svg">
<path d="M16 10H16.01M12 8H9M17 6V3C17 3 13.5 3 13 5H8.64452C6.44336 5 4.46395 6.34012 3.64646 8.38385V8.38385C3.2262 9.4345 3.14772 10.5909 3.42217 11.6887L5.12781 18.5113C5.34655 19.3862 6.13269 20 7.03457 20V20C8.12004 20 9 19.12 9 18.0346V17H13V18C13 19.1046 13.8954 20 15 20H15.0585C15.9193 20 16.6836 19.4491 16.9558 18.6325L18.5 14H20C20.5523 14 21 13.5523 21 13V10C21 9.44772 20.5523 9 20 9H19.5L17 6Z" stroke="black" stroke-width="2" stroke-linecap="round" stroke-linejoin="round"/>
</svg>
