<svg width="24" height="24" viewBox="0 0 24 24" fill="none" xmlns="http://www.w3.org/2000/svg">
<path d="M12 3H6C4.89543 3 4 3.89543 4 5V19C4 20.1046 4.89543 21 6 21H11M12 3L18 9M12 3V8C12 8.55228 12.4477 9 13 9H18M18 9V10M8 13H10M8 17H9.5M22 22L18.9749 18.9749M18.9749 18.9749C19.6082 18.3415 20 17.4665 20 16.5C20 14.567 18.433 13 16.5 13C14.567 13 13 14.567 13 16.5C13 18.433 14.567 20 16.5 20C17.4665 20 18.3415 19.6082 18.9749 18.9749Z" stroke="black" stroke-width="2" stroke-linecap="round" stroke-linejoin="round"/>
</svg>
