<svg width="24" height="24" viewBox="0 0 24 24" fill="none" xmlns="http://www.w3.org/2000/svg">
<path d="M8.4645 15.5355C6.51188 13.5829 6.51188 10.417 8.4645 8.46441M5.63595 18.3639C2.12123 14.8492 2.12123 9.15071 5.63595 5.63599M15.5355 15.5355C17.4881 13.5829 17.4881 10.417 15.5355 8.46441M18.3641 18.3639C21.8788 14.8492 21.8788 9.15071 18.3641 5.63599M13 12C13 12.5523 12.5523 13 12 13C11.4477 13 11 12.5523 11 12C11 11.4477 11.4477 11 12 11C12.5523 11 13 11.4477 13 12Z" stroke="black" stroke-width="2" stroke-linecap="round" stroke-linejoin="round"/>
</svg>
