<svg width="24" height="24" viewBox="0 0 24 24" fill="none" xmlns="http://www.w3.org/2000/svg">
<path d="M9.65199 4.56614C9.85534 3.65106 10.667 3 11.6044 3H12.3957C13.3331 3 14.1447 3.65106 14.3481 4.56614L14.551 5.47935C15.2121 5.73819 15.8243 6.09467 16.3697 6.53105L17.2639 6.24961C18.1581 5.96818 19.1277 6.34554 19.5964 7.15735L19.9921 7.84264C20.4608 8.65445 20.3027 9.68287 19.6119 10.3165L18.9217 10.9496C18.9733 11.2922 19 11.643 19 12C19 12.357 18.9733 12.7078 18.9217 13.0504L19.6119 13.6835C20.3028 14.3171 20.4608 15.3455 19.9921 16.1574L19.5964 16.8426C19.1277 17.6545 18.1581 18.0318 17.2639 17.7504L16.3697 17.4689C15.8243 17.9053 15.2121 18.2618 14.551 18.5206L14.3481 19.4339C14.1447 20.3489 13.3331 21 12.3957 21H11.6044C10.667 21 9.85534 20.3489 9.65199 19.4339L9.44906 18.5206C8.78792 18.2618 8.17576 17.9053 7.63031 17.4689L6.73611 17.7504C5.84196 18.0318 4.87231 17.6545 4.40361 16.8426L4.00795 16.1573C3.53925 15.3455 3.69728 14.3171 4.38808 13.6835L5.0783 13.0504C5.02675 12.7077 5.00002 12.357 5.00002 12C5.00002 11.643 5.02675 11.2922 5.0783 10.9496L4.38809 10.3165C3.69729 9.68288 3.53927 8.65446 4.00797 7.84265L4.40362 7.15735C4.87232 6.34554 5.84197 5.96818 6.73613 6.24962L7.63032 6.53106C8.17577 6.09467 8.78793 5.73819 9.44906 5.47935L9.65199 4.56614Z" stroke="black" stroke-width="2" stroke-linecap="round" stroke-linejoin="round"/>
<path d="M13 12C13 12.5523 12.5523 13 12 13C11.4477 13 11 12.5523 11 12C11 11.4477 11.4477 11 12 11C12.5523 11 13 11.4477 13 12Z" stroke="black" stroke-width="2" stroke-linecap="round" stroke-linejoin="round"/>
</svg>
