<svg width="24" height="24" viewBox="0 0 24 24" fill="none" xmlns="http://www.w3.org/2000/svg">
<path d="M14.9776 16C14.9892 15.8716 16.2127 8.03677 16.7508 4.59374C16.8943 3.67578 17.6849 3 18.614 3V3C19.6556 3 20.5 3.8444 20.5 4.88603V5.5M14.9776 16C14.725 18.8033 12.3691 21 9.50004 21C6.63102 21 4.27508 18.8033 4.02246 16H14.9776ZM7 12.5L7.07295 12.2812C7.33467 11.496 7.13032 10.6303 6.54508 10.0451L6.5 10C5.67157 9.17157 5.67157 7.82843 6.5 7V7M11 12.5L11.0729 12.2812C11.3347 11.496 11.1303 10.6303 10.5451 10.0451L10.5 10C9.67157 9.17157 9.67157 7.82843 10.5 7V7" stroke="black" stroke-width="2" stroke-linecap="round" stroke-linejoin="round"/>
</svg>
