<svg width="24" height="24" viewBox="0 0 24 24" fill="none" xmlns="http://www.w3.org/2000/svg">
<path d="M4.5 10H12M20 10V12C20 14.2091 18.2091 16 16 16H8.5C6.29086 16 4.5 14.2091 4.5 12V9C4.5 7.89543 3.60457 7 2.5 7H2M20 10V10C20 6.13401 16.866 3 13 3H12V10M20 10H12M8 20C8 20.5523 7.55228 21 7 21C6.44772 21 6 20.5523 6 20C6 19.4477 6.44772 19 7 19C7.55228 19 8 19.4477 8 20ZM18 20C18 20.5523 17.5523 21 17 21C16.4477 21 16 20.5523 16 20C16 19.4477 16.4477 19 17 19C17.5523 19 18 19.4477 18 20Z" stroke="black" stroke-width="2" stroke-linecap="round" stroke-linejoin="round"/>
</svg>
