<svg width="24" height="24" viewBox="0 0 24 24" fill="none" xmlns="http://www.w3.org/2000/svg">
<path d="M3.39545 6.51157L8 4H9C9 5.65685 10.3431 7 12 7C13.6569 7 15 5.65685 15 4H16L20.6045 6.51157C21.0962 6.77974 21.2718 7.39936 20.9939 7.88561L20.0068 9.61309C19.7287 10.0998 19.1048 10.2629 18.6241 9.97444L17 9V18C17 19.1046 16.1046 20 15 20H9C7.89543 20 7 19.1046 7 18V9L5.37593 9.97444C4.89521 10.2629 4.27133 10.0998 3.99319 9.61309L3.00606 7.88561C2.72821 7.39936 2.9038 6.77974 3.39545 6.51157Z" stroke="black" stroke-width="2" stroke-linecap="round" stroke-linejoin="round"/>
</svg>
