<svg width="24" height="24" viewBox="0 0 24 24" fill="none" xmlns="http://www.w3.org/2000/svg">
<path d="M15 7C15 8.65685 13.6568 10 12 10C10.3431 10 8.99997 8.65685 8.99997 7C8.99997 5.34315 10.3431 4 12 4C13.6568 4 15 5.34315 15 7Z" stroke="black" stroke-width="2" stroke-linecap="round" stroke-linejoin="round"/>
<path d="M9.99997 16C9.99997 17.6569 8.65682 19 6.99997 19C5.34312 19 3.99997 17.6569 3.99997 16C3.99997 14.3431 5.34312 13 6.99997 13C8.65682 13 9.99997 14.3431 9.99997 16Z" stroke="black" stroke-width="2" stroke-linecap="round" stroke-linejoin="round"/>
<path d="M20 16C20 17.6569 18.6568 19 17 19C15.3431 19 14 17.6569 14 16C14 14.3431 15.3431 13 17 13C18.6568 13 20 14.3431 20 16Z" stroke="black" stroke-width="2" stroke-linecap="round" stroke-linejoin="round"/>
</svg>
