<svg width="24" height="24" viewBox="0 0 24 24" fill="none" xmlns="http://www.w3.org/2000/svg">
<path d="M15 16H7.73244M15 16V8.5M15 16H16.2676M4.26756 16H3C2.44772 16 2 15.5523 2 15V6C2 5.44771 2.44772 5 3 5H14C14.5523 5 15 5.44772 15 6V8.5M15 8.5H19L22 12V16H19.7324M8 17C8 18.1046 7.10457 19 6 19C4.89543 19 4 18.1046 4 17C4 15.8954 4.89543 15 6 15C7.10457 15 8 15.8954 8 17ZM20 17C20 18.1046 19.1046 19 18 19C16.8954 19 16 18.1046 16 17C16 15.8954 16.8954 15 18 15C19.1046 15 20 15.8954 20 17Z" stroke="black" stroke-width="2" stroke-linecap="round" stroke-linejoin="round"/>
</svg>
