<svg width="24" height="24" viewBox="0 0 24 24" fill="none" xmlns="http://www.w3.org/2000/svg">
<path d="M8.82939 10.3967C9.18356 10.1601 9.43973 10.0016 9.20913 9.31406C8.97852 8.62651 8.80209 8.02164 8.24523 8.85771C7.42766 10.0859 9.03385 12.4041 10.54 13.7199C12.0462 15.0358 14.5827 16.3369 15.6901 15.3619C16.4438 14.6978 15.8207 14.6042 15.1084 14.468C14.3962 14.3318 14.2735 14.6069 14.0866 14.9896M21 12C21 16.9706 16.9706 21 12 21C10.3607 21 8.82378 20.5617 7.5 19.796L3 21L4.37355 16.7811C3.50329 15.3958 3 13.7567 3 12C3 7.02944 7.02944 3 12 3C16.9706 3 21 7.02944 21 12Z" stroke="black" stroke-width="2" stroke-linecap="round" stroke-linejoin="round"/>
</svg>
